<svg width="414" height="415" fill="none" xmlns="http://www.w3.org/2000/svg"><path d="M413.997 207.001c0 48.911-16.952 93.861-45.312 129.262-37.937 47.383-96.267 77.739-161.686 77.739-65.42 0-123.75-30.353-161.687-77.739C16.95 300.862 0 255.91 0 207.001 0 92.671 92.67 0 207.001 0s206.996 92.67 206.996 207.001z" fill="#FF5677"/><path d="M237.246 207.001l49.042-49.041c8.355-8.353 8.355-21.896 0-30.251-8.353-8.353-21.896-8.353-30.252 0l-49.041 49.044-49.041-49.042c-8.353-8.352-21.897-8.352-30.252 0-8.355 8.353-8.355 21.896 0 30.252l49.041 49.041-49.041 49.041c-8.355 8.353-8.355 21.897 0 30.252a21.32 21.32 0 0015.124 6.265c5.474 0 10.95-2.09 15.125-6.265l49.044-49.044 49.041 49.041a21.32 21.32 0 0015.125 6.265c5.473 0 10.949-2.09 15.124-6.265 8.355-8.352 8.355-21.896 0-30.251l-49.039-49.042z" fill="#E8E6ED"/></svg>