<svg width="32" height="32" viewBox="0 0 32 32" fill="none" xmlns="http://www.w3.org/2000/svg">
<g id="location">
<path id="icon" fill-rule="evenodd" clip-rule="evenodd" d="M16 31.1034L16.877 30.3377C24.2516 23.8983 28 18.2757 28 13.3333C28 6.33423 22.5373 1.33334 16 1.33334C9.46274 1.33334 4 6.33423 4 13.3333C4 18.2757 7.74841 23.8983 15.123 30.3377L16 31.1034ZM16 27.5512C9.74213 21.9114 6.66665 17.1323 6.66665 13.3333C6.66665 7.86214 10.8855 4.00001 16 4.00001C21.1145 4.00001 25.3333 7.86214 25.3333 13.3333C25.3333 17.1323 22.2578 21.9114 16 27.5512ZM16 6.66668C19.6819 6.66668 22.6667 9.65145 22.6667 13.3333C22.6667 17.0152 19.6819 20 16 20C12.3181 20 9.33335 17.0152 9.33335 13.3333C9.33335 9.65145 12.3181 6.66668 16 6.66668ZM12 13.3333C12 11.1242 13.7909 9.33333 16 9.33333C18.2091 9.33333 20 11.1242 20 13.3333C20 15.5425 18.2091 17.3333 16 17.3333C13.7909 17.3333 12 15.5425 12 13.3333Z" fill="#2C2C2C"/>
</g>
</svg>
