<svg width="24" height="24" fill="none" xmlns="http://www.w3.org/2000/svg"><path fill-rule="evenodd" clip-rule="evenodd" d="M12.951 2.927c-.3-.921-1.603-.921-1.902 0L9.53 7.601a1 1 0 01-.95.69H3.664c-.969 0-1.372 1.24-.588 1.81l3.976 2.888a1 1 0 01.363 1.118l-1.518 4.674c-.3.921.755 1.688 1.538 1.118l3.976-2.888a1 1 0 011.176 0l3.976 2.888c.783.57 1.838-.197 1.538-1.118l-1.518-4.674a1 1 0 01.363-1.118l3.976-2.888c.784-.57.38-1.81-.588-1.81H15.42a1 1 0 01-.951-.69L12.95 2.927z" fill="#3B3B3B"/></svg>