<svg width="374" height="172" fill="none" xmlns="http://www.w3.org/2000/svg"><mask id="a" maskUnits="userSpaceOnUse" x="122" y="-1" width="150" height="103"><path d="M158.076 73.273v13.211h-12.595l-15.248-16.26C115.207 42.788 127.656 15.76 137 8c23.481-19.5 55.511 23.049 57.5 20C196.091 25.561 213.959.5 246 .5l2 32 22.111 68.211-29.089-10.389-14.664-37.373-26.517 8.284v20.778h-16.997V61.233l-24.768 12.04z" fill="#C4C4C4" stroke="#000" stroke-width="1.298"/></mask><g mask="url(#a)" fill="#fff" fill-opacity=".68"><path d="M178.876 33.205a13.923 13.923 0 00-3.665-9.085L152.419 4.91a2.255 2.255 0 00-3.05.13 2.265 2.265 0 000 3.2l17.387 17.421a2.74 2.74 0 010 3.87l-7.716 7.73a2.727 2.727 0 01-3.861 0l-17.387-17.422a2.256 2.256 0 00-3.194 0 2.267 2.267 0 00-.131 3.057l19.174 22.836a13.862 13.862 0 009.067 3.673l6.591.02a10.909 10.909 0 018.008 3.543l52.424 57.669c2.561 2.776 7.346 2.429 10.013-.245 2.669-2.673 3.016-7.466.245-10.033l-57.557-52.527a10.948 10.948 0 01-3.535-8.023l-.021-6.604z"/><path d="M241.875 104.298a7.993 7.993 0 00-.044-.342 6.603 6.603 0 00-.228-1 5.875 5.875 0 00-1.615-2.597l-57.556-52.527a10.826 10.826 0 01-.962-1.01 10.818 10.818 0 01-.85-1.15 10.95 10.95 0 01-1.724-5.862l-.021-6.606a13.865 13.865 0 00-.793-4.312 13.916 13.916 0 00-2.872-4.772L152.418 4.91a2.255 2.255 0 00-3.05.132 2.265 2.265 0 000 3.199l17.387 17.421a2.73 2.73 0 01.6 2.963 2.71 2.71 0 01-.6.905l-2.391 2.397 1.659 1.398a13.92 13.92 0 013.666 9.085v.199c.014 3.44 1.939 6.539 4.931 8.226l.009.005c.06.033.118.07.177.104a12.622 12.622 0 01.437.273c.089.058.177.117.264.178l.151.106c.132.096.262.194.391.296l.08.066c.105.086.21.173.312.264.043.036.085.075.128.112.089.082.178.165.266.25l.114.11c.121.12.241.243.357.37l41.488 45.638 12.006 10.957c.814.754 1.358 1.701 1.654 2.73.462.133.941.216 1.427.25h.001c.319.024.641.024.963.006l.027-.002c.318-.021.636-.06.951-.12l.034-.007c.143-.027.287-.06.429-.096.016-.004.033-.007.048-.012.154-.039.306-.083.457-.132l.008-.003c.14-.046.278-.097.417-.15l.084-.034a8.229 8.229 0 00.416-.18c.137-.066.271-.136.404-.208l.091-.052c.107-.061.212-.124.316-.19l.08-.05a7.656 7.656 0 00.718-.538l.092-.079a7.23 7.23 0 00.326-.304c1.418-1.421 2.18-3.439 2.169-5.405a7.536 7.536 0 00-.037-.69z"/><path d="M221.954 45.191a13.87 13.87 0 0010.3-6.024l5.201-7.646a29.362 29.362 0 004.669-21.407 5.278 5.278 0 00-1.699-3.067 5.256 5.256 0 00-3.244-1.323 29.224 29.224 0 00-20.652 7.21l-6.952 6.09a13.917 13.917 0 00-4.734 10.97l.375 6.593a10.947 10.947 0 01-3.049 8.221l-54.303 55.896c-2.612 2.728-1.979 7.492.845 10 2.823 2.508 7.62 2.567 10.01-.358l48.873-60.72a10.915 10.915 0 017.781-4.017l6.579-.418z"/><path d="M242.124 10.114a5.278 5.278 0 00-4.038-4.268 5.25 5.25 0 00-.905-.122 32.45 32.45 0 00-.814-.027l-.246-.003a26.148 26.148 0 00-.58 0l-.267.002c-.201.004-.401.01-.602.017-.071.004-.143.005-.214.009-.274.012-.547.027-.821.048a29.35 29.35 0 01-5.076 16.84l-5.201 7.645a13.88 13.88 0 01-7.687 5.548c-2.377.675-4.701 1.525-6.903 2.648-2.044 1.042-4.054 2.084-4.079 2.16l-.022.066a13.31 13.31 0 01-.158.443l-.036.09c-.054.137-.109.275-.169.411l-.052.113a10.85 10.85 0 01-.179.378c-.023.046-.049.091-.072.137a9.48 9.48 0 01-.184.344c-.031.055-.064.108-.096.162a9.97 9.97 0 01-.184.308c-.04.063-.083.125-.125.188-.06.09-.118.181-.181.27-.051.073-.107.145-.161.217-.056.076-.111.153-.169.227-.07.088-.143.175-.216.262-.046.056-.091.112-.138.167-.123.141-.249.28-.38.414l-54.303 55.896c-2.612 2.728-1.979 7.492.845 10 2.823 2.508 7.62 2.567 10.01-.358l48.873-60.72a10.915 10.915 0 017.781-4.017l6.579-.418a13.87 13.87 0 0010.3-6.024l5.2-7.646a29.358 29.358 0 004.67-21.407z"/><rect x="139.886" y="14.976" width="5.138" height="42.818" rx="2.569" transform="rotate(-46.22 139.886 14.976)"/></g><path d="M3.983 146.148v-13.766h9.783V78.43H3.983V64.664h71.818v25.834H60.22V78.43H34.972v18.804h20.385V111H34.972v21.382h25.247v-12.185h15.582v25.951H3.983zm144.28-13.063v13.063h-27.239v-4.452c-4.882 3.514-10.037 5.272-15.465 5.272-5.623 0-10.486-1.601-14.586-4.804-4.061-3.202-6.092-7.498-6.092-12.887 0-5.428 2.148-9.978 6.444-13.649 4.295-3.671 9.841-5.506 16.636-5.506 3.788 0 8.142.956 13.063 2.87v-3.456c0-2.89-.976-5.253-2.929-7.088-1.953-1.875-4.569-2.812-7.85-2.812-4.061 0-7.537 1.484-10.427 4.452l-14.586-2.636c4.218-8.943 13.376-13.415 27.474-13.415 5.467 0 9.997.625 13.59 1.875 3.593 1.21 6.268 2.792 8.025 4.745 1.758 1.953 2.988 4.1 3.691 6.444.742 2.304 1.113 6.072 1.113 11.305v20.679h9.138zm-27.239-7.909c-4.374-2.733-7.869-4.1-10.486-4.1-2.069 0-3.963.605-5.682 1.816-1.679 1.211-2.519 2.968-2.519 5.272 0 2.07.684 3.847 2.051 5.331 1.366 1.484 3.124 2.226 5.272 2.226 3.358 0 7.146-1.972 11.364-5.917v-4.628zm31.223-22.611V89.443h7.205V80.54l18.101-13.004v21.908h10.427v13.122h-10.427v24.545c0 2.226.273 3.729.82 4.51.586.742 1.894 1.113 3.925 1.113 1.679 0 3.573-.39 5.682-1.171v12.535c-4.648 1.914-9.197 2.871-13.649 2.871-9.92 0-14.879-4.921-14.879-14.762v-29.641h-7.205zm52.076-29.348c0-2.734.957-5.077 2.871-7.03 1.952-1.952 4.295-2.928 7.029-2.928 2.773 0 5.116.976 7.029 2.928 1.914 1.953 2.871 4.296 2.871 7.03s-.976 5.077-2.929 7.03c-1.914 1.913-4.237 2.87-6.971 2.87-2.695 0-5.018-.977-6.971-2.93-1.953-1.952-2.929-4.275-2.929-6.97zm-7.967 29.348V89.443h26.712v43.642h8.436v13.063h-35.148v-13.063h8.612v-30.52h-8.612zm87.459 26.478l14.059 4.51c-5.897 9.256-15.114 13.883-27.65 13.883-9.997 0-17.808-2.636-23.431-7.908-5.585-5.272-8.377-12.204-8.377-20.795 0-8.748 2.89-16.051 8.67-21.909 5.78-5.858 13.141-8.787 22.084-8.787 6.483 0 12.087 1.64 16.812 4.921 4.726 3.28 8.006 7.361 9.841 12.243 1.836 4.882 2.754 10.329 2.754 16.344h-42.236c.274 5.155 1.894 8.806 4.862 10.954 3.007 2.148 6.171 3.222 9.49 3.222 4.335 0 8.709-2.226 13.122-6.678zm-3.456-17.574c-.43-3.163-1.68-5.858-3.749-8.084-2.031-2.226-4.823-3.339-8.377-3.339-6.639 0-10.505 3.808-11.599 11.423h23.725zm29.23 34.679v-19.507h13.239c.117 2.656 1.348 4.784 3.691 6.385 2.343 1.562 5.233 2.343 8.669 2.343 2.968 0 5.273-.507 6.913-1.523 1.679-1.054 2.519-2.382 2.519-3.983 0-1.484-.762-2.636-2.285-3.456-1.523-.82-4.511-1.602-8.963-2.344-9.177-1.484-15.796-3.729-19.858-6.736-4.061-3.046-6.092-7.069-6.092-12.067 0-4.687 1.914-8.631 5.741-11.833 3.827-3.242 8.904-4.862 15.23-4.862 5.116 0 9.9.937 14.352 2.811v-1.933h12.946v16.461h-12.946c-1.171-3.944-5.311-5.916-12.419-5.916-5.233 0-7.849 1.444-7.849 4.334 0 1.094.527 1.933 1.581 2.519 1.094.547 3.847 1.211 8.26 1.992 6.99 1.211 12.224 2.421 15.699 3.632 3.476 1.21 6.249 3.222 8.318 6.033 2.109 2.773 3.164 6.112 3.164 10.017 0 5.546-1.992 10.096-5.975 13.649-3.945 3.515-9.549 5.272-16.813 5.272-6.756 0-11.383-1.366-13.883-4.1v2.812h-13.239z" fill="#fff"/></svg>