<svg width="22" height="20" fill="none" xmlns="http://www.w3.org/2000/svg"><mask id="a" maskUnits="userSpaceOnUse" x="0" y="1" width="22" height="17"><path d="M5.586 15.055l1.152-2.16-1.152-.58.704-.448C.818 6.933.129 4.737 1.805 3.345 6.017-.153 11.763 7.48 12.12 6.933 12.406 6.496 15.252 2 21 2v6.727l-1.614 1.704-1.077.978h-.474l-4.757 1.486v3.727H10.03v-3.727l-4.443 2.16z" fill="#C4C4C4" stroke="#000" stroke-width="1.298"/></mask><g clip-path="url(#clip0)" fill="#fff" fill-opacity=".1" mask="url(#a)"><path d="M9.317 7.867a2.497 2.497 0 00-.657-1.63L4.57 2.791a.405.405 0 00-.547.598l3.119 3.125a.491.491 0 010 .694L5.759 8.595a.49.49 0 01-.693 0L1.947 5.469a.405.405 0 00-.596.549l3.44 4.096a2.49 2.49 0 001.626.66l1.182.003a1.957 1.957 0 011.437.635l9.404 10.346c.46.498 1.318.435 1.797-.044.478-.48.54-1.34.043-1.8L9.955 10.49a1.964 1.964 0 01-.634-1.44l-.004-1.184z"/><path d="M20.619 20.62a1.599 1.599 0 00-.032-.181 1.055 1.055 0 00-.306-.525L9.954 10.49a1.934 1.934 0 01-.325-.388 1.96 1.96 0 01-.31-1.051l-.003-1.185a2.496 2.496 0 00-.657-1.63L4.57 2.791a.413.413 0 00-.24-.095.406.406 0 00-.306.693l3.119 3.125a.489.489 0 010 .694l-.43.43.299.25a2.497 2.497 0 01.657 1.666 1.71 1.71 0 00.885 1.476h.001l.032.02a2.354 2.354 0 01.126.08l.027.02c.024.016.047.034.07.052l.014.012c.02.015.038.031.057.047l.022.02.048.045.02.02.065.066 7.442 8.188 2.154 1.965c.146.136.244.305.297.49a1.33 1.33 0 00.429.046h.005a1.39 1.39 0 00.253-.04l.009-.003a1.45 1.45 0 00.082-.023h.001a1.523 1.523 0 00.163-.066h.002a1.6 1.6 0 00.072-.038l.017-.009a.642.642 0 00.056-.034l.015-.009a1.41 1.41 0 00.065-.046l.012-.009a1.243 1.243 0 00.126-.11 1.377 1.377 0 00.383-1.093z"/><path d="M17.045 10.017a2.488 2.488 0 001.848-1.08l.933-1.372a5.267 5.267 0 00.837-3.84.946.946 0 00-.886-.788 5.243 5.243 0 00-3.705 1.294l-1.247 1.092a2.496 2.496 0 00-.85 1.968l.068 1.183a1.964 1.964 0 01-.547 1.475L3.754 19.976c-.468.49-.355 1.344.152 1.794.506.45 1.367.46 1.796-.064l8.767-10.893c.345-.425.85-.686 1.396-.72l1.18-.076z"/><path d="M20.663 3.725a.945.945 0 00-.886-.788 5.778 5.778 0 00-.146-.005h-.196l-.108.003-.039.002-.147.008a5.266 5.266 0 01-.91 3.021l-.934 1.372a2.49 2.49 0 01-1.379.995 6.8 6.8 0 00-1.238.475c-.367.187-.727.374-.732.388l-.004.011-.028.08-.007.016-.03.074-.01.02-.031.068-.013.024c-.01.021-.022.042-.033.062l-.017.03-.034.054-.022.034-.032.048-.03.04-.03.04-.038.047-.025.03a1.85 1.85 0 01-.068.075L3.754 19.976c-.468.49-.355 1.344.152 1.794.506.45 1.367.46 1.796-.065l8.767-10.892c.345-.425.85-.686 1.396-.72l1.18-.076a2.488 2.488 0 001.848-1.08l.933-1.372a5.266 5.266 0 00.837-3.84z"/><rect x="2.323" y="4.597" width=".922" height="7.681" rx=".461" transform="rotate(-46.22 2.323 4.597)"/></g><path d="M4.641 18v-2.216h1.574V7.102H4.641V4.886H16.2v4.158h-2.508V7.102H9.628v3.026h3.281v2.216h-3.28v3.44h4.063v-1.96h2.507V18H4.641z" fill="#FC8868"/><defs><clipPath id="clip0"><path fill="#fff" transform="translate(.953 2.334)" d="M0 0h20.086v20.086H0z"/></clipPath></defs></svg>